<mxfile host="app.diagrams.net" modified="2023-07-18T10:35:26.052Z" agent="Mozilla/5.0 (X11; Ubuntu; Linux x86_64; rv:109.0) Gecko/20100101 Firefox/113.0" etag="S-lvlUnA2HD1tO8RboHy" version="21.6.2" type="device">
  <diagram name="Page-1" id="OnH2HxPvch0l8OaRGnw7">
    <mxGraphModel dx="651" dy="379" grid="1" gridSize="10" guides="1" tooltips="1" connect="1" arrows="1" fold="1" page="1" pageScale="1" pageWidth="827" pageHeight="1169" math="0" shadow="0">
      <root>
        <mxCell id="0" />
        <mxCell id="1" parent="0" />
        <mxCell id="RdYYO0UL_oksXpyvxEGz-17" value="" style="ellipse;whiteSpace=wrap;html=1;aspect=fixed;fillColor=#f8cecc;strokeColor=#b85450;" vertex="1" parent="1">
          <mxGeometry x="187.5" y="187.5" width="115" height="115" as="geometry" />
        </mxCell>
        <mxCell id="RdYYO0UL_oksXpyvxEGz-16" value="" style="ellipse;whiteSpace=wrap;html=1;aspect=fixed;fillColor=#f8cecc;strokeColor=#b85450;" vertex="1" parent="1">
          <mxGeometry x="347.5" y="287.5" width="115" height="115" as="geometry" />
        </mxCell>
        <mxCell id="RdYYO0UL_oksXpyvxEGz-1" value="" style="rounded=1;whiteSpace=wrap;html=1;rotation=-60;" vertex="1" parent="1">
          <mxGeometry x="208.83999999999997" y="228.75" width="72.33" height="32.5" as="geometry" />
        </mxCell>
        <mxCell id="RdYYO0UL_oksXpyvxEGz-2" value="" style="rounded=1;whiteSpace=wrap;html=1;rotation=-60;" vertex="1" parent="1">
          <mxGeometry x="368.84" y="328.75" width="72.33" height="32.5" as="geometry" />
        </mxCell>
        <mxCell id="RdYYO0UL_oksXpyvxEGz-11" value="a&lt;sub&gt;x&lt;/sub&gt;" style="text;html=1;strokeColor=none;fillColor=none;align=center;verticalAlign=middle;whiteSpace=wrap;rounded=0;" vertex="1" parent="1">
          <mxGeometry x="384" y="310" width="60" height="30" as="geometry" />
        </mxCell>
        <mxCell id="RdYYO0UL_oksXpyvxEGz-12" value="a&lt;sub&gt;y&lt;/sub&gt;" style="text;html=1;strokeColor=none;fillColor=none;align=center;verticalAlign=middle;whiteSpace=wrap;rounded=0;" vertex="1" parent="1">
          <mxGeometry x="221.17000000000002" y="210" width="60" height="30" as="geometry" />
        </mxCell>
        <mxCell id="RdYYO0UL_oksXpyvxEGz-19" value="" style="shape=orEllipse;perimeter=ellipsePerimeter;whiteSpace=wrap;html=1;backgroundOutline=1;" vertex="1" parent="1">
          <mxGeometry x="400" y="340" width="10" height="10" as="geometry" />
        </mxCell>
        <mxCell id="RdYYO0UL_oksXpyvxEGz-18" value="" style="endArrow=classic;html=1;rounded=0;entryX=1;entryY=0.5;entryDx=0;entryDy=0;exitX=0.555;exitY=0.519;exitDx=0;exitDy=0;exitPerimeter=0;" edge="1" parent="1" source="RdYYO0UL_oksXpyvxEGz-19" target="RdYYO0UL_oksXpyvxEGz-16">
          <mxGeometry width="50" height="50" relative="1" as="geometry">
            <mxPoint x="401.8204287209993" y="341.1412014199126" as="sourcePoint" />
            <mxPoint x="420" y="350" as="targetPoint" />
          </mxGeometry>
        </mxCell>
        <mxCell id="RdYYO0UL_oksXpyvxEGz-20" value="" style="shape=orEllipse;perimeter=ellipsePerimeter;whiteSpace=wrap;html=1;backgroundOutline=1;" vertex="1" parent="1">
          <mxGeometry x="240" y="240" width="10" height="10" as="geometry" />
        </mxCell>
        <mxCell id="RdYYO0UL_oksXpyvxEGz-22" value="E&lt;sub&gt;sf&lt;/sub&gt;" style="text;html=1;strokeColor=none;fillColor=none;align=center;verticalAlign=middle;whiteSpace=wrap;rounded=0;" vertex="1" parent="1">
          <mxGeometry x="410" y="340" width="60" height="30" as="geometry" />
        </mxCell>
        <mxCell id="RdYYO0UL_oksXpyvxEGz-23" value="" style="endArrow=none;dashed=1;html=1;rounded=0;entryX=0.528;entryY=0.622;entryDx=0;entryDy=0;entryPerimeter=0;exitX=0.583;exitY=0.622;exitDx=0;exitDy=0;exitPerimeter=0;" edge="1" parent="1" source="RdYYO0UL_oksXpyvxEGz-20" target="RdYYO0UL_oksXpyvxEGz-19">
          <mxGeometry width="50" height="50" relative="1" as="geometry">
            <mxPoint x="250" y="249" as="sourcePoint" />
            <mxPoint x="410" y="350" as="targetPoint" />
            <Array as="points" />
          </mxGeometry>
        </mxCell>
        <mxCell id="RdYYO0UL_oksXpyvxEGz-24" value="||a&lt;sub&gt;x -&lt;/sub&gt;a&lt;sub&gt;y&lt;/sub&gt;||&lt;sub&gt;2&lt;/sub&gt;" style="text;html=1;strokeColor=none;fillColor=none;align=center;verticalAlign=middle;whiteSpace=wrap;rounded=0;" vertex="1" parent="1">
          <mxGeometry x="310" y="261.25" width="60" height="30" as="geometry" />
        </mxCell>
      </root>
    </mxGraphModel>
  </diagram>
</mxfile>
